<svg width="24" height="11" viewBox="0 0 24 11" fill="none" xmlns="http://www.w3.org/2000/svg">
<path d="M0.75004 5.35482C0.75004 5.0126 0.881735 4.6844 1.11616 4.44242C1.35058 4.20044 1.66852 4.06449 2.00004 4.06449L18.9875 4.06449L17.3625 2.39998C17.1272 2.15701 16.9949 1.82746 16.9949 1.48385C16.9949 1.14023 17.1272 0.810692 17.3625 0.56772C17.5979 0.324747 17.9172 0.188247 18.25 0.188247C18.5829 0.188247 18.9022 0.324747 19.1375 0.56772L22.8875 4.43869C23.061 4.62014 23.1785 4.85055 23.2252 5.10086C23.2719 5.35117 23.2458 5.61016 23.15 5.84514C23.0563 6.08078 22.897 6.28249 22.6924 6.42485C22.4877 6.56722 22.2468 6.64387 22 6.64514L2.00004 6.64514C1.66852 6.64514 1.35058 6.50919 1.11616 6.26721C0.881735 6.02523 0.75004 5.69703 0.75004 5.35482Z" fill="white"/>
<path d="M17 9.22579C16.9991 9.05597 17.0306 8.88763 17.0928 8.73043C17.155 8.57322 17.2467 8.43023 17.3625 8.30966L21.1125 4.43869C21.3479 4.19572 21.6671 4.05922 22 4.05922C22.1648 4.05922 22.328 4.09273 22.4803 4.15784C22.6326 4.22295 22.771 4.31838 22.8875 4.43869C23.0041 4.559 23.0965 4.70183 23.1596 4.85902C23.2227 5.0162 23.2551 5.18468 23.2551 5.35482C23.2551 5.69844 23.1229 6.02798 22.8875 6.27095L19.1375 10.1419C19.0213 10.2629 18.8831 10.3589 18.7307 10.4244C18.5784 10.4899 18.415 10.5236 18.25 10.5236C18.085 10.5236 17.9216 10.4899 17.7693 10.4244C17.617 10.3589 17.4787 10.2629 17.3625 10.1419C17.2467 10.0213 17.155 9.87836 17.0928 9.72115C17.0306 9.56394 16.9991 9.3956 17 9.22579Z" fill="white"/>
</svg>
